<?xml version="1.0" ?><svg id="Layer_1" style="enable-background:new 0 0 512 512;" version="1.1" viewBox="0 0 512 512" xml:space="preserve" xmlns="http://www.w3.org/2000/svg" xmlns:xlink="http://www.w3.org/1999/xlink"><style type="text/css">
	.st0{fill:#3A3A3A;}
</style><path class="st0" d="M177.2,162.7l-11.2,8c-29.9,21.3-58.2,44.9-84.4,70.5c-9.3,7.6-9.3,21.9,0,29.5l0.5,0.5  c26,25.4,53.9,48.7,83.5,69.8l11.6,8.3c9.2,7.6,23.2,1,23.2-11V289c7.1,0.3,14.3,0.6,21.4,1c34.1,1.9,68.1,3.9,102.2,5.8  c21.8,1.3,43.6,2.5,65.4,3.8c7.6,0.5,15-0.5,22-3.7c19.7-9,29.8-30,24.6-50.9c-5.1-20.5-24.6-34.1-46.7-32.7  c-14.1,0.9-28.3,1.9-42.4,2.6c-48.8,2.7-97.7,5.3-146.5,7.9v-49.2C200.4,161.7,186.5,155.1,177.2,162.7z" id="XMLID_1_"/></svg>